<svg width="13" height="13" viewBox="0 0 13 13" fill="none" xmlns="http://www.w3.org/2000/svg">
<path d="M12.5357 11.1429H0.464286C0.341149 11.1429 0.223057 11.1918 0.135986 11.2788C0.0489157 11.3659 0 11.484 0 11.6071L0 12.5357C0 12.6588 0.0489157 12.7769 0.135986 12.864C0.223057 12.9511 0.341149 13 0.464286 13H12.5357C12.6588 13 12.7769 12.9511 12.864 12.864C12.9511 12.7769 13 12.6588 13 12.5357V11.6071C13 11.484 12.9511 11.3659 12.864 11.2788C12.7769 11.1918 12.6588 11.1429 12.5357 11.1429ZM12.5357 7.42857H0.464286C0.341149 7.42857 0.223057 7.47749 0.135986 7.56456C0.0489157 7.65163 0 7.76972 0 7.89286L0 8.82143C0 8.94456 0.0489157 9.06266 0.135986 9.14973C0.223057 9.2368 0.341149 9.28571 0.464286 9.28571H12.5357C12.6588 9.28571 12.7769 9.2368 12.864 9.14973C12.9511 9.06266 13 8.94456 13 8.82143V7.89286C13 7.76972 12.9511 7.65163 12.864 7.56456C12.7769 7.47749 12.6588 7.42857 12.5357 7.42857ZM12.5357 3.71429H0.464286C0.341149 3.71429 0.223057 3.7632 0.135986 3.85027C0.0489157 3.93734 0 4.05544 0 4.17857L0 5.10714C0 5.23028 0.0489157 5.34837 0.135986 5.43544C0.223057 5.52251 0.341149 5.57143 0.464286 5.57143H12.5357C12.6588 5.57143 12.7769 5.52251 12.864 5.43544C12.9511 5.34837 13 5.23028 13 5.10714V4.17857C13 4.05544 12.9511 3.93734 12.864 3.85027C12.7769 3.7632 12.6588 3.71429 12.5357 3.71429ZM12.5357 0H0.464286C0.341149 0 0.223057 0.0489157 0.135986 0.135986C0.0489157 0.223057 0 0.341149 0 0.464286L0 1.39286C0 1.51599 0.0489157 1.63409 0.135986 1.72116C0.223057 1.80823 0.341149 1.85714 0.464286 1.85714H12.5357C12.6588 1.85714 12.7769 1.80823 12.864 1.72116C12.9511 1.63409 13 1.51599 13 1.39286V0.464286C13 0.341149 12.9511 0.223057 12.864 0.135986C12.7769 0.0489157 12.6588 0 12.5357 0Z" fill="#102027"/>
</svg>
