<svg width="13" height="13" viewBox="0 0 13 13" fill="none" xmlns="http://www.w3.org/2000/svg">
<path d="M11.7812 0H1.21875C0.545898 0 0 0.623884 0 1.39286V11.6071C0 12.3761 0.545898 13 1.21875 13H11.7812C12.4541 13 13 12.3761 13 11.6071V1.39286C13 0.623884 12.4541 0 11.7812 0ZM9.65859 8.42969C9.78047 8.56897 9.78047 8.79531 9.65859 8.9346L8.63027 10.1098C8.5084 10.2491 8.31035 10.2491 8.18848 10.1098L6.5 8.16272L4.81152 10.1098C4.68965 10.2491 4.4916 10.2491 4.36973 10.1098L3.34141 8.9346C3.21953 8.79531 3.21953 8.56897 3.34141 8.42969L5.04512 6.5L3.34141 4.57031C3.21953 4.43103 3.21953 4.20469 3.34141 4.0654L4.36973 2.89018C4.4916 2.75089 4.68965 2.75089 4.81152 2.89018L6.5 4.83728L8.18848 2.89018C8.31035 2.75089 8.5084 2.75089 8.63027 2.89018L9.65859 4.0654C9.78047 4.20469 9.78047 4.43103 9.65859 4.57031L7.95488 6.5L9.65859 8.42969Z" fill="#FF7043"/>
</svg>
