<svg width="10" height="9" viewBox="0 0 10 9" fill="none" xmlns="http://www.w3.org/2000/svg">
<path d="M8.92857 9H1.07143C0.479688 9 0 8.56828 0 8.03571V0.964286C0 0.431719 0.479688 0 1.07143 0H8.92857C9.52031 0 10 0.431719 10 0.964286V8.03571C10 8.56828 9.52031 9 8.92857 9ZM4.35969 7.03006L8.46683 3.33364C8.60629 3.20812 8.60629 3.00459 8.46683 2.87908L7.96176 2.42452C7.8223 2.299 7.59616 2.29898 7.45667 2.42452L4.10714 5.43907L2.54333 4.03164C2.40386 3.90612 2.17772 3.90612 2.03824 4.03164L1.53317 4.4862C1.39371 4.61172 1.39371 4.81524 1.53317 4.94076L3.8546 7.03004C3.99409 7.1556 4.2202 7.1556 4.35969 7.03006V7.03006Z" fill="#22BB28"/>
</svg>
