<svg width="20" height="20" viewBox="0 0 20 20" fill="none" xmlns="http://www.w3.org/2000/svg">
<path d="M10.0129 11.0622L3.18876 19.5595C2.71709 20.1468 1.9544 20.1468 1.48775 19.5595L0.353749 18.1475C-0.117916 17.5601 -0.117916 16.6104 0.353749 16.0294L5.19083 10.0062L0.353749 3.98313C-0.117916 3.39582 -0.117916 2.44611 0.353749 1.86504L1.48274 0.440489C1.9544 -0.146828 2.71709 -0.146828 3.18374 0.440489L10.0078 8.93783C10.4845 9.52515 10.4845 10.4749 10.0129 11.0622ZM19.6469 8.93783L12.8228 0.440489C12.3511 -0.146828 11.5884 -0.146828 11.1218 0.440489L9.98777 1.85255C9.5161 2.43987 9.5161 3.38957 9.98777 3.97064L14.8198 10L9.98275 16.0231C9.51108 16.6104 9.51108 17.5601 9.98275 18.1412L11.1168 19.5595C11.5884 20.1468 12.3511 20.1468 12.8178 19.5595L19.6419 11.0622C20.1185 10.4749 20.1185 9.52515 19.6469 8.93783Z" fill="#FF7043"/>
</svg>
