<svg width="17" height="20" viewBox="0 0 17 20" fill="none" xmlns="http://www.w3.org/2000/svg">
<path d="M7.20793 10.0129L0.355232 3.18876C-0.118411 2.71709 -0.118411 1.9544 0.355232 1.48775L1.49399 0.353749C1.96763 -0.117916 2.73352 -0.117916 3.20212 0.353749L8.05948 5.19083L12.9168 0.353749C13.3905 -0.117916 14.1564 -0.117916 14.625 0.353749L15.7738 1.48274C16.2474 1.9544 16.2474 2.71709 15.7738 3.18374L8.9211 10.0078C8.44746 10.4845 7.68157 10.4845 7.20793 10.0129ZM8.9211 19.6469L15.7738 12.8228C16.2474 12.3511 16.2474 11.5884 15.7738 11.1218L14.635 9.98777C14.1614 9.5161 13.3955 9.5161 12.9269 9.98777L8.06452 14.8198L3.20716 9.98275C2.73352 9.51108 1.96763 9.51108 1.49903 9.98275L0.355232 11.1168C-0.118411 11.5884 -0.118411 12.3511 0.355232 12.8178L7.20793 19.6419C7.68157 20.1185 8.44746 20.1185 8.9211 19.6469Z" fill="#FF7043"/>
</svg>
